<svg version="1.1" xmlns="http://www.w3.org/2000/svg" viewBox="0 0 1480 650" width="1480" height="650"><rect x="0" y="0" width="1480" height="650" fill="#ffffff"></rect><text x="740.0" y="54.4" font-family="Excalifont, Virgil, 'Comic Sans MS', 'Segoe Print', cursive" font-size="24px" fill="#1e1e1e" text-anchor="middle" font-weight="bold" style="white-space:pre">Four users. Four definitions of success.</text><text x="740.0" y="80.9" font-family="Excalifont, Virgil, 'Comic Sans MS', 'Segoe Print', cursive" font-size="14px" fill="#868e96" text-anchor="middle" font-weight="normal" style="white-space:pre">The challenge wasn't designing four interfaces. It was designing one system around four definitions of “working”.</text><path d="M45,110 L375,110 L375,580 L45,580 Z" fill="#ffffff" stroke="none"></path><path d="M44.4,108.9 Q210.7,108.1 375.1,109.6 M373.6,110.0 Q372.9,344.7 373.6,578.7 M374.8,581.0 Q208.3,578.8 45.4,581.4 M45.2,579.7 Q47.1,343.0 46.1,109.3" fill="none" stroke="#1e1e1e" stroke-width="2" stroke-linecap="round"></path><path d="M43.9,108.8 Q209.1,111.4 374.0,110.3 M375.4,109.6 Q375.2,343.0 373.6,579.1 M375.6,579.8 Q209.2,580.4 44.9,579.4 M45.9,580.6 Q43.9,345.3 45.1,111.2" fill="none" stroke="#1e1e1e" stroke-width="2" stroke-linecap="round"></path><path d="M45,110 L375,110 L375,206 L45,206 Z" fill="#f3f0ff" stroke="none"></path><path d="M45.7,109.3 Q212.2,108.3 374.7,110.8 M373.9,110.0 Q372.9,158.8 375.8,206.2 M376.2,205.4 Q210.9,206.4 45.3,205.9 M46.1,207.4 Q44.9,158.7 43.6,110.6" fill="none" stroke="#1e1e1e" stroke-width="2" stroke-linecap="round"></path><path d="M45.5,111.6 Q211.4,109.0 374.6,110.5 M373.5,109.9 Q373.5,156.3 373.6,206.9 M373.8,205.2 Q209.5,207.7 43.7,205.8 M45.2,207.2 Q46.4,159.6 44.3,109.7" fill="none" stroke="#1e1e1e" stroke-width="2" stroke-linecap="round"></path><ellipse cx="95" cy="158" rx="26" ry="26" fill="#ffffff" stroke="none"></ellipse><path d="M120.7,158.8 L121.1,164.0 L116.8,170.4 L112.8,176.4 L108.2,180.0 L100.6,182.9 L94.7,184.1 L89.3,183.5 L82.0,180.8 L77.0,175.4 L73.4,171.6 L70.7,165.4 L68.8,157.8 L69.0,151.6 L71.5,144.0 L76.0,138.9 L81.6,134.5 L87.2,132.1 L94.1,131.7 L100.7,133.7 L108.3,134.7 L112.8,139.3 L117.2,144.2 L120.9,152.4 L120.9,158.0" fill="none" stroke="#1e1e1e" stroke-width="1.8" stroke-linecap="round"></path><path d="M120.1,157.1 L119.8,164.2 L118.2,170.3 L112.3,177.4 L108.1,179.7 L101.8,182.1 L95.1,185.1 L89.1,183.5 L81.5,180.2 L75.9,177.0 L72.6,171.6 L69.5,164.1 L69.7,159.1 L70.7,151.9 L73.2,145.5 L76.0,139.7 L81.7,134.4 L87.2,132.4 L94.5,132.4 L102.7,132.8 L109.0,136.6 L114.4,139.3 L116.9,144.4 L119.4,150.6 L121.3,158.9" fill="none" stroke="#1e1e1e" stroke-width="1.8" stroke-linecap="round"></path><path d="M104.7,152.0 L104.0,155.2 L101.9,157.4 L102.3,159.7 L100.1,160.6 L96.6,162.3 L94.6,162.7 L93.7,161.4 L90.3,161.6 L89.1,158.3 L86.4,156.2 L87.2,155.3 L85.2,152.7 L87.4,149.8 L86.9,147.1 L87.8,143.9 L91.5,143.7 L92.7,143.3 L94.9,142.8 L98.0,141.7 L99.0,142.9 L100.8,145.1 L102.3,146.8 L102.9,150.3 L103.7,151.9" fill="none" stroke="#1e1e1e" stroke-width="1.6" stroke-linecap="round"></path><path d="M104.2,152.9 L103.5,155.5 L102.8,157.1 L101.4,158.0 L99.4,160.0 L96.2,162.3 L94.3,161.9 L93.2,161.8 L90.1,160.7 L88.8,159.7 L86.3,157.1 L85.8,154.1 L86.6,152.0 L86.4,150.0 L88.1,146.9 L88.9,144.9 L90.5,143.8 L92.6,142.4 L95.0,143.0 L97.8,143.2 L100.5,142.8 L101.5,145.9 L103.5,146.2 L102.9,149.3 L103.1,151.4" fill="none" stroke="#1e1e1e" stroke-width="1.6" stroke-linecap="round"></path><path d="M79,180 Q95,162 111,180" stroke="#1e1e1e" stroke-width="1.8" fill="none"></path><text x="137" y="154.7" font-family="Excalifont, Virgil, 'Comic Sans MS', 'Segoe Print', cursive" font-size="19px" fill="#1e1e1e" text-anchor="start" font-weight="bold" style="white-space:pre">RAMBAI</text><text x="137" y="176.6" font-family="Excalifont, Virgil, 'Comic Sans MS', 'Segoe Print', cursive" font-size="13px" fill="#868e96" text-anchor="start" font-weight="normal" style="white-space:pre">Patient · 52 · first OPD visit</text><path d="M63,228 L357,228 L357,300 L63,300 Z" fill="#f8fbff" stroke="none"></path><path d="M61.6,228.5 Q211.3,229.8 355.9,228.7 M357.5,226.9 Q358.7,266.1 356.1,301.4 M356.7,300.0 Q212.2,301.5 61.9,299.8 M63.0,299.5 Q61.6,263.2 63.7,226.5" fill="none" stroke="#0056b3" stroke-width="1.6" stroke-linecap="round"></path><path d="M63.2,227.8 Q207.8,227.2 357.4,228.0 M355.6,229.6 Q358.3,266.1 355.7,299.2 M355.5,300.9 Q209.0,298.3 62.8,301.3 M64.0,299.2 Q61.4,265.9 63.2,228.6" fill="none" stroke="#0056b3" stroke-width="1.6" stroke-linecap="round"></path><text x="210.0" y="258.8" font-family="Excalifont, Virgil, 'Comic Sans MS', 'Segoe Print', cursive" font-size="15px" fill="#0056b3" text-anchor="middle" font-weight="normal" style="white-space:pre">“I don't want to explain my</text><text x="210.0" y="279.8" font-family="Excalifont, Virgil, 'Comic Sans MS', 'Segoe Print', cursive" font-size="15px" fill="#0056b3" text-anchor="middle" font-weight="normal" style="white-space:pre">problem four times.”</text><text x="67" y="328.2" font-family="Excalifont, Virgil, 'Comic Sans MS', 'Segoe Print', cursive" font-size="12px" fill="#868e96" text-anchor="start" font-weight="normal" style="white-space:pre">WHAT SHAPES HER DAY</text><text x="67" y="354.9" font-family="Excalifont, Virgil, 'Comic Sans MS', 'Segoe Print', cursive" font-size="14px" fill="#1e1e1e" text-anchor="start" font-weight="normal" style="white-space:pre">•  Speaks Bhojpuri, reads little</text><text x="67" y="378.9" font-family="Excalifont, Virgil, 'Comic Sans MS', 'Segoe Print', cursive" font-size="14px" fill="#1e1e1e" text-anchor="start" font-weight="normal" style="white-space:pre">•  Son holds the phone</text><text x="67" y="402.9" font-family="Excalifont, Virgil, 'Comic Sans MS', 'Segoe Print', cursive" font-size="14px" fill="#1e1e1e" text-anchor="start" font-weight="normal" style="white-space:pre">•  Has never used a hospital app</text><path d="M61.7,426.6 Q210.8,427.7 355.6,429.4" fill="none" stroke="#868e96" stroke-width="1.2" stroke-linecap="round" stroke-dasharray="5 7"></path><path d="M63.4,429.0 Q208.1,429.6 355.6,429.2" fill="none" stroke="#868e96" stroke-width="1.2" stroke-linecap="round" stroke-dasharray="5 7"></path><text x="67" y="458.2" font-family="Excalifont, Virgil, 'Comic Sans MS', 'Segoe Print', cursive" font-size="12px" fill="#28a745" text-anchor="start" font-weight="normal" style="white-space:pre">WHAT IT FORCED IN THE DESIGN</text><text x="67" y="484.9" font-family="Excalifont, Virgil, 'Comic Sans MS', 'Segoe Print', cursive" font-size="14px" fill="#28a745" text-anchor="start" font-weight="normal" style="white-space:pre">→  Voice-first, not type-first</text><text x="67" y="508.9" font-family="Excalifont, Virgil, 'Comic Sans MS', 'Segoe Print', cursive" font-size="14px" fill="#28a745" text-anchor="start" font-weight="normal" style="white-space:pre">→  One question per screen</text><text x="67" y="532.9" font-family="Excalifont, Virgil, 'Comic Sans MS', 'Segoe Print', cursive" font-size="14px" fill="#28a745" text-anchor="start" font-weight="normal" style="white-space:pre">→  Reports optional, never blocking</text><path d="M400,110 L730,110 L730,580 L400,580 Z" fill="#ffffff" stroke="none"></path><path d="M399.9,109.5 Q565.2,111.9 729.3,108.8 M730.1,109.2 Q728.3,343.5 728.6,579.0 M729.4,579.4 Q566.2,579.1 400.0,579.0 M399.5,578.5 Q398.9,342.8 400.7,110.2" fill="none" stroke="#1e1e1e" stroke-width="2" stroke-linecap="round"></path><path d="M399.0,109.9 Q566.9,108.2 731.0,109.8 M730.0,111.1 Q729.5,345.0 730.6,581.5 M729.5,581.1 Q565.9,580.6 399.7,579.5 M398.6,578.8 Q398.1,346.1 399.2,108.9" fill="none" stroke="#1e1e1e" stroke-width="2" stroke-linecap="round"></path><path d="M400,110 L730,110 L730,206 L400,206 Z" fill="#fff7ed" stroke="none"></path><path d="M398.7,111.1 Q566.7,110.8 729.3,109.2 M729.3,109.9 Q728.5,157.8 729.2,207.5 M731.5,206.2 Q563.9,208.1 399.4,205.5 M398.4,205.6 Q399.9,158.0 399.0,110.0" fill="none" stroke="#1e1e1e" stroke-width="2" stroke-linecap="round"></path><path d="M398.4,109.2 Q563.2,109.5 728.5,108.5 M729.4,109.1 Q730.4,158.1 730.8,206.5 M730.7,207.2 Q564.5,205.2 401.6,204.9 M400.7,206.5 Q398.0,159.5 401.3,110.4" fill="none" stroke="#1e1e1e" stroke-width="2" stroke-linecap="round"></path><ellipse cx="450" cy="158" rx="26" ry="26" fill="#ffffff" stroke="none"></ellipse><path d="M476.5,158.7 L474.3,164.8 L472.5,171.7 L469.1,177.1 L463.2,181.4 L457.1,183.5 L449.4,183.0 L442.5,182.8 L436.1,181.3 L431.7,176.7 L427.8,171.4 L424.9,163.6 L424.7,158.5 L424.9,151.3 L427.8,144.0 L432.1,139.1 L436.1,135.0 L443.8,132.2 L450.5,133.0 L456.7,132.6 L463.0,135.9 L469.0,139.9 L472.8,144.1 L474.3,150.7 L476.5,157.6" fill="none" stroke="#1e1e1e" stroke-width="1.8" stroke-linecap="round"></path><path d="M476.1,156.9 L474.1,164.2 L472.9,171.4 L468.8,175.9 L463.0,180.4 L456.7,182.3 L450.9,183.3 L444.3,184.1 L435.9,180.4 L432.3,177.4 L427.4,170.5 L424.2,165.7 L423.4,158.2 L424.1,151.3 L428.5,144.2 L432.3,139.6 L437.9,135.9 L442.7,133.8 L450.0,131.0 L455.6,132.9 L462.9,135.0 L467.6,139.3 L472.1,145.7 L474.0,151.8 L476.7,157.2" fill="none" stroke="#1e1e1e" stroke-width="1.8" stroke-linecap="round"></path><path d="M459.9,152.5 L459.6,154.1 L457.5,156.8 L457.5,159.3 L454.2,160.5 L451.8,160.7 L449.1,162.7 L447.2,162.6 L444.9,160.1 L443.7,158.4 L441.9,158.0 L442.2,155.3 L441.3,152.9 L442.3,149.5 L442.7,146.0 L444.1,144.8 L446.1,143.7 L447.2,141.3 L450.9,141.2 L452.3,142.0 L454.1,143.9 L457.4,144.4 L458.1,146.6 L458.8,149.2 L458.3,151.3" fill="none" stroke="#1e1e1e" stroke-width="1.6" stroke-linecap="round"></path><path d="M458.4,152.9 L458.7,154.0 L458.7,158.1 L456.3,158.3 L453.8,159.8 L452.0,160.8 L449.4,161.5 L447.8,162.5 L446.0,160.5 L443.4,159.1 L441.9,156.6 L440.3,154.1 L442.0,151.2 L441.3,149.7 L443.0,146.4 L443.1,144.4 L445.3,143.2 L448.7,143.1 L450.8,140.9 L451.3,142.8 L455.4,143.3 L456.6,143.8 L457.6,147.9 L459.4,150.2 L460.0,151.4" fill="none" stroke="#1e1e1e" stroke-width="1.6" stroke-linecap="round"></path><path d="M434,180 Q450,162 466,180" stroke="#1e1e1e" stroke-width="1.8" fill="none"></path><text x="492" y="154.7" font-family="Excalifont, Virgil, 'Comic Sans MS', 'Segoe Print', cursive" font-size="19px" fill="#1e1e1e" text-anchor="start" font-weight="bold" style="white-space:pre">SURESH</text><text x="492" y="176.6" font-family="Excalifont, Virgil, 'Comic Sans MS', 'Segoe Print', cursive" font-size="13px" fill="#868e96" text-anchor="start" font-weight="normal" style="white-space:pre">Staff nurse · runs the queue</text><path d="M418,228 L712,228 L712,300 L418,300 Z" fill="#f8fbff" stroke="none"></path><path d="M416.7,226.9 Q565.1,228.8 713.4,228.7 M712.5,228.8 Q711.8,264.2 710.5,300.9 M711.1,301.3 Q565.7,299.1 416.8,299.2 M418.4,300.6 Q416.3,262.1 418.1,228.3" fill="none" stroke="#0056b3" stroke-width="1.6" stroke-linecap="round"></path><path d="M417.6,227.1 Q565.5,225.8 711.4,227.9 M713.5,228.5 Q713.7,263.9 711.2,299.2 M713.5,300.7 Q564.1,297.9 418.0,300.6 M417.7,299.2 Q418.7,265.9 417.1,226.5" fill="none" stroke="#0056b3" stroke-width="1.6" stroke-linecap="round"></path><text x="565.0" y="258.8" font-family="Excalifont, Virgil, 'Comic Sans MS', 'Segoe Print', cursive" font-size="15px" fill="#0056b3" text-anchor="middle" font-weight="normal" style="white-space:pre">“If it slows the queue, I'm</text><text x="565.0" y="279.8" font-family="Excalifont, Virgil, 'Comic Sans MS', 'Segoe Print', cursive" font-size="15px" fill="#0056b3" text-anchor="middle" font-weight="normal" style="white-space:pre">back to my clipboard.”</text><text x="422" y="328.2" font-family="Excalifont, Virgil, 'Comic Sans MS', 'Segoe Print', cursive" font-size="12px" fill="#868e96" text-anchor="start" font-weight="normal" style="white-space:pre">WHAT SHAPES HIS DAY</text><text x="422" y="354.9" font-family="Excalifont, Virgil, 'Comic Sans MS', 'Segoe Print', cursive" font-size="14px" fill="#1e1e1e" text-anchor="start" font-weight="normal" style="white-space:pre">•  Sees 200+ patients a shift</text><text x="422" y="378.9" font-family="Excalifont, Virgil, 'Comic Sans MS', 'Segoe Print', cursive" font-size="14px" fill="#1e1e1e" text-anchor="start" font-weight="normal" style="white-space:pre">•  Trusts what he can check</text><text x="422" y="402.9" font-family="Excalifont, Virgil, 'Comic Sans MS', 'Segoe Print', cursive" font-size="14px" fill="#1e1e1e" text-anchor="start" font-weight="normal" style="white-space:pre">•  Has a system that already works</text><path d="M417.5,427.7 Q565.8,426.6 713.0,428.8" fill="none" stroke="#868e96" stroke-width="1.2" stroke-linecap="round" stroke-dasharray="5 7"></path><path d="M418.0,427.1 Q567.1,427.2 713.0,427.1" fill="none" stroke="#868e96" stroke-width="1.2" stroke-linecap="round" stroke-dasharray="5 7"></path><text x="422" y="458.2" font-family="Excalifont, Virgil, 'Comic Sans MS', 'Segoe Print', cursive" font-size="12px" fill="#28a745" text-anchor="start" font-weight="normal" style="white-space:pre">WHAT IT FORCED IN THE DESIGN</text><text x="422" y="484.9" font-family="Excalifont, Virgil, 'Comic Sans MS', 'Segoe Print', cursive" font-size="14px" fill="#28a745" text-anchor="start" font-weight="normal" style="white-space:pre">→  Queue readable in seconds</text><text x="422" y="508.9" font-family="Excalifont, Virgil, 'Comic Sans MS', 'Segoe Print', cursive" font-size="14px" fill="#28a745" text-anchor="start" font-weight="normal" style="white-space:pre">→  Reason shown with every signal</text><text x="422" y="532.9" font-family="Excalifont, Virgil, 'Comic Sans MS', 'Segoe Print', cursive" font-size="14px" fill="#28a745" text-anchor="start" font-weight="normal" style="white-space:pre">→  Override as a first-class action</text><path d="M755,110 L1085,110 L1085,580 L755,580 Z" fill="#ffffff" stroke="none"></path><path d="M754.1,110.8 Q919.1,112.0 1085.0,109.0 M1084.1,109.7 Q1085.7,347.0 1083.9,579.7 M1084.1,581.5 Q918.4,578.0 753.6,579.7 M756.3,581.2 Q756.0,347.2 756.4,109.5" fill="none" stroke="#1e1e1e" stroke-width="2" stroke-linecap="round"></path><path d="M754.0,111.4 Q921.1,107.9 1085.5,109.6 M1084.6,109.5 Q1083.5,342.8 1084.3,579.5 M1086.5,578.8 Q922.1,578.7 754.5,581.0 M756.0,579.8 Q753.0,344.9 754.6,111.3" fill="none" stroke="#1e1e1e" stroke-width="2" stroke-linecap="round"></path><path d="M755,110 L1085,110 L1085,206 L755,206 Z" fill="#f1f9f4" stroke="none"></path><path d="M754.0,109.6 Q921.8,107.9 1084.7,111.0 M1085.9,108.5 Q1082.9,156.0 1086.3,205.2 M1085.8,207.3 Q919.3,205.0 756.5,206.4 M754.2,206.7 Q754.2,157.0 753.4,110.8" fill="none" stroke="#1e1e1e" stroke-width="2" stroke-linecap="round"></path><path d="M756.3,110.4 Q922.0,107.9 1084.1,109.9 M1086.5,111.5 Q1084.5,156.9 1084.8,206.0 M1086.4,205.0 Q921.4,207.1 756.0,206.9 M755.3,205.4 Q754.2,157.4 755.9,108.7" fill="none" stroke="#1e1e1e" stroke-width="2" stroke-linecap="round"></path><ellipse cx="805" cy="158" rx="26" ry="26" fill="#ffffff" stroke="none"></ellipse><path d="M830.3,158.6 L829.6,163.8 L826.5,171.1 L823.0,177.4 L818.8,181.6 L811.2,182.2 L804.1,184.0 L798.7,183.0 L791.4,180.3 L786.9,176.8 L783.0,171.8 L780.2,163.9 L779.7,157.5 L780.0,151.0 L783.0,144.3 L786.1,139.1 L791.2,136.3 L798.4,132.5 L804.8,133.1 L811.7,132.3 L818.7,135.8 L824.5,138.7 L827.5,145.7 L830.9,152.2 L830.0,157.5" fill="none" stroke="#1e1e1e" stroke-width="1.8" stroke-linecap="round"></path><path d="M830.2,157.3 L831.2,164.9 L828.5,170.7 L824.2,176.3 L817.5,181.1 L812.7,182.2 L805.2,184.3 L797.6,182.8 L791.2,179.9 L786.1,176.6 L782.8,170.3 L778.8,164.3 L779.4,157.3 L779.5,150.6 L783.1,145.1 L785.7,138.7 L791.8,135.6 L798.6,132.0 L804.3,132.4 L811.5,132.4 L817.6,136.5 L823.0,139.8 L827.2,144.8 L830.9,152.4 L830.7,157.3" fill="none" stroke="#1e1e1e" stroke-width="1.8" stroke-linecap="round"></path><path d="M814.5,151.3 L812.6,155.5 L812.6,157.7 L811.2,159.9 L809.4,159.9 L806.3,161.8 L805.3,162.9 L801.8,161.9 L800.2,160.7 L797.9,158.6 L797.3,157.9 L795.4,154.6 L796.7,153.0 L795.6,148.6 L798.2,148.0 L798.6,143.9 L801.4,143.1 L803.6,142.6 L805.7,141.3 L808.0,141.7 L809.3,144.1 L812.1,144.2 L812.2,146.8 L813.7,149.2 L813.2,151.4" fill="none" stroke="#1e1e1e" stroke-width="1.6" stroke-linecap="round"></path><path d="M814.5,152.9 L812.7,154.7 L813.4,156.0 L812.1,158.2 L809.7,160.8 L807.6,161.2 L804.8,162.2 L802.5,162.0 L800.4,160.5 L797.6,159.3 L797.2,156.4 L796.9,155.2 L795.9,151.3 L796.2,148.5 L796.4,146.8 L797.7,144.8 L800.5,142.3 L803.0,141.4 L805.5,142.6 L807.4,141.4 L809.5,143.1 L812.4,144.1 L813.6,148.1 L814.2,150.1 L813.3,153.1" fill="none" stroke="#1e1e1e" stroke-width="1.6" stroke-linecap="round"></path><path d="M789,180 Q805,162 821,180" stroke="#1e1e1e" stroke-width="1.8" fill="none"></path><text x="847" y="154.7" font-family="Excalifont, Virgil, 'Comic Sans MS', 'Segoe Print', cursive" font-size="19px" fill="#1e1e1e" text-anchor="start" font-weight="bold" style="white-space:pre">DR. PRIYA</text><text x="847" y="176.6" font-family="Excalifont, Virgil, 'Comic Sans MS', 'Segoe Print', cursive" font-size="13px" fill="#868e96" text-anchor="start" font-weight="normal" style="white-space:pre">Resident · OPD consult</text><path d="M773,228 L1067,228 L1067,300 L773,300 Z" fill="#f8fbff" stroke="none"></path><path d="M773.0,229.5 Q921.9,226.5 1067.9,229.4 M1065.6,227.5 Q1068.1,262.5 1068.3,299.3 M1068.0,298.9 Q920.0,301.9 772.1,299.2 M773.0,299.4 Q770.9,262.6 771.9,229.4" fill="none" stroke="#0056b3" stroke-width="1.6" stroke-linecap="round"></path><path d="M773.6,229.3 Q918.5,229.3 1065.8,228.1 M1067.4,227.6 Q1068.7,264.2 1067.3,301.2 M1065.7,301.6 Q920.6,299.5 774.0,299.2 M774.6,300.2 Q772.4,265.2 772.8,227.0" fill="none" stroke="#0056b3" stroke-width="1.6" stroke-linecap="round"></path><text x="920.0" y="258.8" font-family="Excalifont, Virgil, 'Comic Sans MS', 'Segoe Print', cursive" font-size="15px" fill="#0056b3" text-anchor="middle" font-weight="normal" style="white-space:pre">“Give me four minutes back</text><text x="920.0" y="279.8" font-family="Excalifont, Virgil, 'Comic Sans MS', 'Segoe Print', cursive" font-size="15px" fill="#0056b3" text-anchor="middle" font-weight="normal" style="white-space:pre">per patient.”</text><text x="777" y="328.2" font-family="Excalifont, Virgil, 'Comic Sans MS', 'Segoe Print', cursive" font-size="12px" fill="#868e96" text-anchor="start" font-weight="normal" style="white-space:pre">WHAT SHAPES HER DAY</text><text x="777" y="354.9" font-family="Excalifont, Virgil, 'Comic Sans MS', 'Segoe Print', cursive" font-size="14px" fill="#1e1e1e" text-anchor="start" font-weight="normal" style="white-space:pre">•  8–12 min re-taking history</text><text x="777" y="378.9" font-family="Excalifont, Virgil, 'Comic Sans MS', 'Segoe Print', cursive" font-size="14px" fill="#1e1e1e" text-anchor="start" font-weight="normal" style="white-space:pre">•  Information-saturated</text><text x="777" y="402.9" font-family="Excalifont, Virgil, 'Comic Sans MS', 'Segoe Print', cursive" font-size="14px" fill="#1e1e1e" text-anchor="start" font-weight="normal" style="white-space:pre">•  Thinks while the patient talks</text><path d="M773.8,426.6 Q921.4,426.9 1067.4,429.5" fill="none" stroke="#868e96" stroke-width="1.2" stroke-linecap="round" stroke-dasharray="5 7"></path><path d="M773.3,428.5 Q919.2,425.8 1065.5,426.9" fill="none" stroke="#868e96" stroke-width="1.2" stroke-linecap="round" stroke-dasharray="5 7"></path><text x="777" y="458.2" font-family="Excalifont, Virgil, 'Comic Sans MS', 'Segoe Print', cursive" font-size="12px" fill="#28a745" text-anchor="start" font-weight="normal" style="white-space:pre">WHAT IT FORCED IN THE DESIGN</text><text x="777" y="484.9" font-family="Excalifont, Virgil, 'Comic Sans MS', 'Segoe Print', cursive" font-size="14px" fill="#28a745" text-anchor="start" font-weight="normal" style="white-space:pre">→  Pre-read, not a dashboard</text><text x="777" y="508.9" font-family="Excalifont, Virgil, 'Comic Sans MS', 'Segoe Print', cursive" font-size="14px" fill="#28a745" text-anchor="start" font-weight="normal" style="white-space:pre">→  Complaint + red flags first</text><text x="777" y="532.9" font-family="Excalifont, Virgil, 'Comic Sans MS', 'Segoe Print', cursive" font-size="14px" fill="#28a745" text-anchor="start" font-weight="normal" style="white-space:pre">→  Full transcript on demand only</text><path d="M1110,110 L1440,110 L1440,580 L1110,580 Z" fill="#ffffff" stroke="none"></path><path d="M1110.4,109.8 Q1275.1,111.8 1438.8,109.1 M1440.5,108.5 Q1437.8,344.4 1438.7,579.5 M1439.1,580.3 Q1275.4,578.7 1110.4,579.9 M1108.8,581.4 Q1108.9,343.4 1108.7,110.4" fill="none" stroke="#1e1e1e" stroke-width="2" stroke-linecap="round"></path><path d="M1111.2,110.9 Q1274.6,108.9 1438.4,110.5 M1440.2,109.5 Q1440.7,344.7 1441.4,580.7 M1439.2,581.3 Q1273.0,580.1 1109.7,579.2 M1108.6,580.9 Q1107.8,345.2 1111.4,108.9" fill="none" stroke="#1e1e1e" stroke-width="2" stroke-linecap="round"></path><path d="M1110,110 L1440,110 L1440,206 L1110,206 Z" fill="#fdf2f4" stroke="none"></path><path d="M1109.0,110.3 Q1275.0,110.6 1441.0,109.0 M1439.4,109.4 Q1438.0,159.7 1440.9,206.7 M1438.4,207.1 Q1276.1,205.8 1110.8,205.8 M1109.1,204.7 Q1108.8,155.9 1109.5,110.8" fill="none" stroke="#1e1e1e" stroke-width="2" stroke-linecap="round"></path><path d="M1110.6,111.1 Q1275.9,109.0 1440.2,109.8 M1440.9,110.1 Q1438.9,158.6 1441.5,205.1 M1441.2,204.4 Q1273.9,204.8 1110.8,207.4 M1110.8,205.4 Q1111.7,157.2 1109.2,111.3" fill="none" stroke="#1e1e1e" stroke-width="2" stroke-linecap="round"></path><ellipse cx="1160" cy="158" rx="26" ry="26" fill="#ffffff" stroke="none"></ellipse><path d="M1186.3,158.4 L1185.5,165.8 L1182.4,171.7 L1178.8,177.2 L1172.9,181.0 L1166.9,182.7 L1159.4,184.3 L1152.3,184.0 L1146.2,179.5 L1140.7,177.3 L1137.1,170.2 L1133.8,163.7 L1134.4,158.3 L1135.3,151.8 L1136.5,145.2 L1141.3,140.3 L1147.7,136.3 L1152.3,133.7 L1160.9,133.0 L1165.9,132.2 L1172.1,134.5 L1179.1,140.3 L1182.8,145.7 L1185.4,150.8 L1185.1,157.1" fill="none" stroke="#1e1e1e" stroke-width="1.8" stroke-linecap="round"></path><path d="M1186.6,157.4 L1184.7,164.6 L1181.5,170.5 L1177.9,176.9 L1172.7,180.1 L1167.8,183.1 L1160.8,184.3 L1152.2,182.9 L1146.9,181.1 L1141.3,176.8 L1137.6,170.4 L1135.7,163.8 L1134.7,157.3 L1133.8,150.6 L1138.1,146.1 L1140.5,139.6 L1147.0,136.1 L1152.6,132.9 L1159.7,132.7 L1166.2,133.9 L1172.5,134.9 L1178.8,139.6 L1181.7,145.3 L1184.2,151.9 L1186.4,158.6" fill="none" stroke="#1e1e1e" stroke-width="1.8" stroke-linecap="round"></path><path d="M1169.3,151.7 L1168.5,154.4 L1168.7,156.1 L1167.2,158.0 L1163.9,160.1 L1163.2,161.7 L1159.7,162.8 L1157.1,161.6 L1155.6,161.2 L1154.2,159.4 L1151.9,156.6 L1150.5,155.3 L1151.4,152.5 L1150.6,149.3 L1152.8,147.2 L1152.8,144.8 L1156.3,142.8 L1157.0,141.9 L1160.4,142.8 L1161.6,141.6 L1163.9,143.0 L1166.4,144.2 L1167.4,146.3 L1169.7,149.9 L1168.1,153.0" fill="none" stroke="#1e1e1e" stroke-width="1.6" stroke-linecap="round"></path><path d="M1168.1,151.7 L1169.8,155.2 L1168.3,156.9 L1165.7,159.4 L1163.6,160.0 L1162.1,160.6 L1159.8,162.6 L1158.1,161.7 L1155.8,160.6 L1152.8,159.3 L1152.0,157.5 L1152.2,154.4 L1151.2,152.5 L1151.1,148.8 L1152.7,147.8 L1154.2,145.4 L1156.3,143.7 L1158.0,142.2 L1159.6,142.3 L1161.4,142.2 L1165.1,143.8 L1166.6,144.4 L1167.6,146.9 L1169.0,149.2 L1169.4,152.9" fill="none" stroke="#1e1e1e" stroke-width="1.6" stroke-linecap="round"></path><path d="M1144,180 Q1160,162 1176,180" stroke="#1e1e1e" stroke-width="1.8" fill="none"></path><text x="1202" y="154.7" font-family="Excalifont, Virgil, 'Comic Sans MS', 'Segoe Print', cursive" font-size="19px" fill="#1e1e1e" text-anchor="start" font-weight="bold" style="white-space:pre">PROF. KULKARNI</text><text x="1202" y="176.6" font-family="Excalifont, Virgil, 'Comic Sans MS', 'Segoe Print', cursive" font-size="13px" fill="#868e96" text-anchor="start" font-weight="normal" style="white-space:pre">OPD head · decides rollout</text><path d="M1128,228 L1422,228 L1422,300 L1128,300 Z" fill="#f8fbff" stroke="none"></path><path d="M1127.0,228.5 Q1276.2,227.5 1422.0,229.5 M1420.5,228.1 Q1420.5,265.3 1423.4,300.1 M1420.7,300.2 Q1275.2,301.0 1128.0,300.4 M1129.1,300.1 Q1127.6,266.0 1127.1,228.6" fill="none" stroke="#0056b3" stroke-width="1.6" stroke-linecap="round"></path><path d="M1127.7,228.8 Q1273.3,230.2 1421.5,226.6 M1421.3,227.7 Q1419.8,263.6 1421.7,300.6 M1421.5,299.2 Q1273.8,301.1 1129.4,300.1 M1127.1,301.0 Q1127.5,262.7 1126.8,228.9" fill="none" stroke="#0056b3" stroke-width="1.6" stroke-linecap="round"></path><text x="1275.0" y="258.8" font-family="Excalifont, Virgil, 'Comic Sans MS', 'Segoe Print', cursive" font-size="15px" fill="#0056b3" text-anchor="middle" font-weight="normal" style="white-space:pre">“Show me the reduction in</text><text x="1275.0" y="279.8" font-family="Excalifont, Virgil, 'Comic Sans MS', 'Segoe Print', cursive" font-size="15px" fill="#0056b3" text-anchor="middle" font-weight="normal" style="white-space:pre">wrong-routing.”</text><text x="1132" y="328.2" font-family="Excalifont, Virgil, 'Comic Sans MS', 'Segoe Print', cursive" font-size="12px" fill="#868e96" text-anchor="start" font-weight="normal" style="white-space:pre">WHAT SHAPES HIS DAY</text><text x="1132" y="354.9" font-family="Excalifont, Virgil, 'Comic Sans MS', 'Segoe Print', cursive" font-size="14px" fill="#1e1e1e" text-anchor="start" font-weight="normal" style="white-space:pre">•  Accountable for safety at scale</text><text x="1132" y="378.9" font-family="Excalifont, Virgil, 'Comic Sans MS', 'Segoe Print', cursive" font-size="14px" fill="#1e1e1e" text-anchor="start" font-weight="normal" style="white-space:pre">•  Barely opens the product</text><text x="1132" y="402.9" font-family="Excalifont, Virgil, 'Comic Sans MS', 'Segoe Print', cursive" font-size="14px" fill="#1e1e1e" text-anchor="start" font-weight="normal" style="white-space:pre">•  Needs to defend the decision</text><path d="M1129.0,428.4 Q1274.9,428.3 1421.1,429.5" fill="none" stroke="#868e96" stroke-width="1.2" stroke-linecap="round" stroke-dasharray="5 7"></path><path d="M1127.5,428.4 Q1276.4,429.4 1421.9,427.3" fill="none" stroke="#868e96" stroke-width="1.2" stroke-linecap="round" stroke-dasharray="5 7"></path><text x="1132" y="458.2" font-family="Excalifont, Virgil, 'Comic Sans MS', 'Segoe Print', cursive" font-size="12px" fill="#28a745" text-anchor="start" font-weight="normal" style="white-space:pre">WHAT IT FORCED IN THE DESIGN</text><text x="1132" y="484.9" font-family="Excalifont, Virgil, 'Comic Sans MS', 'Segoe Print', cursive" font-size="14px" fill="#28a745" text-anchor="start" font-weight="normal" style="white-space:pre">→  Outcomes over usage numbers</text><text x="1132" y="508.9" font-family="Excalifont, Virgil, 'Comic Sans MS', 'Segoe Print', cursive" font-size="14px" fill="#28a745" text-anchor="start" font-weight="normal" style="white-space:pre">→  Every decision auditable</text><text x="1132" y="532.9" font-family="Excalifont, Virgil, 'Comic Sans MS', 'Segoe Print', cursive" font-size="14px" fill="#28a745" text-anchor="start" font-weight="normal" style="white-space:pre">→  Safety monitoring built in</text><text x="740.0" y="623.6" font-family="Excalifont, Virgil, 'Comic Sans MS', 'Segoe Print', cursive" font-size="16px" fill="#1e1e1e" text-anchor="middle" font-weight="normal" style="white-space:pre">Same AI output. Three different information depths, and one person who never opens the product at all.</text></svg>