<svg version="1.1" xmlns="http://www.w3.org/2000/svg" viewBox="0 0 1250 1010" width="1250" height="1010"><rect x="0" y="0" width="1250" height="1010" fill="#ffffff"></rect><text x="625.0" y="52.0" font-family="Excalifont, Virgil, 'Comic Sans MS', 'Segoe Print', cursive" font-size="23px" fill="#1e1e1e" text-anchor="middle" font-weight="bold" style="white-space:pre">Layer 02 — What happens between input and output</text><text x="625.0" y="79.2" font-family="Excalifont, Virgil, 'Comic Sans MS', 'Segoe Print', cursive" font-size="15px" fill="#0056b3" text-anchor="middle" font-weight="normal" style="white-space:pre">AI can surface information. It cannot silently make the clinical decision.</text><path d="M475,105 L645,105 L645,167 L475,167 Z" fill="#fff" stroke="none"></path><path d="M474.4,103.9 Q560.7,103.1 645.1,104.6 M643.6,105.0 Q642.9,135.7 643.6,165.7 M644.8,168.0 Q558.3,165.8 475.4,168.4 M475.2,166.7 Q477.1,134.0 476.1,104.3" fill="none" stroke="#1e1e1e" stroke-width="2" stroke-linecap="round"></path><path d="M473.9,103.8 Q559.1,106.4 644.0,105.3 M645.4,104.6 Q645.2,134.0 643.6,166.1 M645.6,166.8 Q559.2,167.4 474.9,166.4 M475.9,167.6 Q473.9,136.3 475.1,106.2" fill="none" stroke="#1e1e1e" stroke-width="2" stroke-linecap="round"></path><text x="560" y="130.4" font-family="Excalifont, Virgil, 'Comic Sans MS', 'Segoe Print', cursive" font-size="17px" fill="#1e1e1e" text-anchor="middle" font-weight="normal" style="white-space:pre">PATIENT</text><text x="560" y="153.4" font-family="Excalifont, Virgil, 'Comic Sans MS', 'Segoe Print', cursive" font-size="17px" fill="#1e1e1e" text-anchor="middle" font-weight="normal" style="white-space:pre">INPUT</text><path d="M430,215 L690,215 L690,275 L430,275 Z" fill="#fff" stroke="none"></path><path d="M430.7,214.3 Q562.2,213.3 689.7,215.8 M688.9,215.0 Q687.9,245.8 690.8,275.2 M691.2,274.4 Q560.9,275.4 430.3,274.9 M431.1,276.4 Q429.9,245.7 428.6,215.6" fill="none" stroke="#1e1e1e" stroke-width="2" stroke-linecap="round"></path><path d="M430.5,216.6 Q561.4,214.0 689.6,215.5 M688.5,214.9 Q688.5,243.3 688.6,275.9 M688.8,274.2 Q559.5,276.7 428.7,274.8 M430.2,276.2 Q431.4,246.6 429.3,214.7" fill="none" stroke="#1e1e1e" stroke-width="2" stroke-linecap="round"></path><text x="560.0" y="250.6" font-family="Excalifont, Virgil, 'Comic Sans MS', 'Segoe Print', cursive" font-size="16px" fill="#1e1e1e" text-anchor="middle" font-weight="normal" style="white-space:pre">Speech / text in 5 languages</text><path d="M559.5,168.2 Q562.1,189.4 559.0,214.1" fill="none" stroke="#1e1e1e" stroke-width="2" stroke-linecap="round"></path><path d="M559.1,167.0 Q560.4,189.9 558.4,214.7" fill="none" stroke="#1e1e1e" stroke-width="2" stroke-linecap="round"></path><path d="M553.6,204.9 Q558.2,210.4 560.0,215.2" fill="none" stroke="#1e1e1e" stroke-width="2" stroke-linecap="round"></path><path d="M566.5,203.8 Q564.2,210.6 560.7,215.6" fill="none" stroke="#1e1e1e" stroke-width="2" stroke-linecap="round"></path><path d="M430,325 L690,325 L690,385 L430,385 Z" fill="#f0f7ff" stroke="none"></path><path d="M429.7,324.7 Q558.2,325.6 688.6,323.6 M689.1,323.9 Q689.3,353.0 688.4,383.9 M688.7,384.6 Q557.9,386.7 430.4,383.9 M429.2,384.5 Q429.4,353.3 431.1,326.6" fill="none" stroke="#0056b3" stroke-width="2" stroke-linecap="round"></path><path d="M429.9,324.9 Q558.1,323.2 689.5,324.2 M691.1,323.9 Q687.9,357.0 690.1,383.9 M690.1,383.5 Q560.1,387.1 431.2,385.6 M429.2,384.6 Q428.5,356.2 430.1,325.9" fill="none" stroke="#0056b3" stroke-width="2" stroke-linecap="round"></path><text x="560.0" y="360.6" font-family="Excalifont, Virgil, 'Comic Sans MS', 'Segoe Print', cursive" font-size="16px" fill="#0056b3" text-anchor="middle" font-weight="normal" style="white-space:pre">AI interpretation</text><path d="M559.5,274.1 Q561.4,302.2 561.1,326.0" fill="none" stroke="#0056b3" stroke-width="2" stroke-linecap="round"></path><path d="M561.0,275.8 Q558.8,300.1 559.5,323.5" fill="none" stroke="#0056b3" stroke-width="2" stroke-linecap="round"></path><path d="M552.9,314.3 Q556.2,320.4 560.9,324.9" fill="none" stroke="#0056b3" stroke-width="2" stroke-linecap="round"></path><path d="M567.1,315.7 Q564.4,319.5 559.4,324.5" fill="none" stroke="#0056b3" stroke-width="2" stroke-linecap="round"></path><path d="M560,435.0 L710.0,530 L560,625.0 L410.0,530 Z" fill="#f0f7ff" stroke="none"></path><path d="M559.0,434.1 Q635.6,484.3 711.1,529.9 M710.5,531.0 Q633.1,578.2 561.3,625.9 M560.8,624.9 Q483.6,578.8 409.5,531.0 M411.5,529.7 Q484.6,484.5 560.7,433.9" fill="none" stroke="#0056b3" stroke-width="2" stroke-linecap="round"></path><path d="M558.8,433.9 Q636.8,483.9 708.9,531.0 M711.5,530.5 Q634.3,577.7 558.8,623.4 M561.5,625.5 Q485.1,579.4 409.8,531.2 M411.0,529.1 Q483.9,481.6 559.2,435.3" fill="none" stroke="#0056b3" stroke-width="2" stroke-linecap="round"></path><text x="560" y="512.3" font-family="Excalifont, Virgil, 'Comic Sans MS', 'Segoe Print', cursive" font-size="18px" fill="#0056b3" text-anchor="middle" font-weight="normal" style="white-space:pre">RED-FLAG</text><text x="560" y="536.3" font-family="Excalifont, Virgil, 'Comic Sans MS', 'Segoe Print', cursive" font-size="18px" fill="#0056b3" text-anchor="middle" font-weight="normal" style="white-space:pre">+ CONFIDENCE</text><text x="560" y="560.3" font-family="Excalifont, Virgil, 'Comic Sans MS', 'Segoe Print', cursive" font-size="18px" fill="#0056b3" text-anchor="middle" font-weight="normal" style="white-space:pre">GATE</text><path d="M559.2,384.7 Q558.3,411.8 559.5,434.9" fill="none" stroke="#0056b3" stroke-width="2" stroke-linecap="round"></path><path d="M560.3,386.3 Q559.6,411.9 560.0,435.1" fill="none" stroke="#0056b3" stroke-width="2" stroke-linecap="round"></path><path d="M553.9,423.8 Q556.7,429.0 559.0,435.6" fill="none" stroke="#0056b3" stroke-width="2" stroke-linecap="round"></path><path d="M565.5,424.7 Q563.7,430.0 559.7,435.0" fill="none" stroke="#0056b3" stroke-width="2" stroke-linecap="round"></path><path d="M760,325 L1060,325 L1060,389 L760,389 Z" fill="#f8fff8" stroke="none"></path><path d="M760.2,325.9 Q908.2,325.3 1059.2,324.3 M1060.9,325.0 Q1060.3,358.2 1061.3,388.8 M1060.4,389.0 Q910.1,389.9 759.8,389.1 M759.9,390.4 Q760.9,358.7 761.4,324.2" fill="none" stroke="#28a745" stroke-width="2" stroke-linecap="round"></path><path d="M760.2,326.4 Q911.5,323.4 1058.8,324.8 M1058.6,324.2 Q1058.1,357.8 1060.9,390.3 M1058.9,389.7 Q910.7,387.4 761.2,390.5 M759.1,390.4 Q759.5,356.9 761.6,326.1" fill="none" stroke="#28a745" stroke-width="2" stroke-linecap="round"></path><text x="910.0" y="351.9" font-family="Excalifont, Virgil, 'Comic Sans MS', 'Segoe Print', cursive" font-size="14px" fill="#28a745" text-anchor="middle" font-weight="normal" style="white-space:pre">Runs on every case, whatever</text><text x="910.0" y="371.9" font-family="Excalifont, Virgil, 'Comic Sans MS', 'Segoe Print', cursive" font-size="14px" fill="#28a745" text-anchor="middle" font-weight="normal" style="white-space:pre">the confidence score says</text><path d="M758.9,356.8 Q725.1,356.3 689.0,356.4" fill="none" stroke="#28a745" stroke-width="1.4" stroke-linecap="round" stroke-dasharray="6 8"></path><path d="M760.7,355.5 Q725.2,356.7 688.5,356.5" fill="none" stroke="#28a745" stroke-width="1.4" stroke-linecap="round" stroke-dasharray="6 8"></path><path d="M60,660 L360,660 L360,724 L60,724 Z" fill="#fdf2f4" stroke="none"></path><path d="M60.4,660.0 Q208.0,662.2 360.9,661.5 M358.7,659.2 Q357.9,693.2 359.3,722.8 M359.8,725.3 Q211.4,722.9 58.9,725.3 M60.2,724.6 Q58.2,690.0 60.6,659.8" fill="none" stroke="#dc3545" stroke-width="2" stroke-linecap="round"></path><path d="M58.6,661.4 Q210.6,661.4 358.7,661.1 M358.6,661.2 Q359.8,691.3 360.2,725.4 M359.3,722.8 Q210.1,722.8 58.8,722.9 M58.6,723.0 Q59.2,691.1 60.8,659.3" fill="none" stroke="#dc3545" stroke-width="2" stroke-linecap="round"></path><text x="210.0" y="697.6" font-family="Excalifont, Virgil, 'Comic Sans MS', 'Segoe Print', cursive" font-size="16px" fill="#dc3545" text-anchor="middle" font-weight="normal" style="white-space:pre">AI is not confident</text><path d="M410.0,529.0 Q309.3,592.8 209.2,658.4" fill="none" stroke="#dc3545" stroke-width="2" stroke-linecap="round"></path><path d="M410.7,530.2 Q308.6,594.9 211.4,658.7" fill="none" stroke="#dc3545" stroke-width="2" stroke-linecap="round"></path><path d="M215.9,649.1 Q212.6,655.5 209.8,660.0" fill="none" stroke="#dc3545" stroke-width="2" stroke-linecap="round"></path><path d="M222.4,660.5 Q215.6,660.7 210.4,660.3" fill="none" stroke="#dc3545" stroke-width="2" stroke-linecap="round"></path><text x="255" y="589.9" font-family="Excalifont, Virgil, 'Comic Sans MS', 'Segoe Print', cursive" font-size="14px" fill="#868e96" text-anchor="middle" font-weight="normal" style="white-space:pre">uncertain</text><path d="M60,780 L360,780 L360,844 L60,844 Z" fill="#fff" stroke="none"></path><path d="M59.7,779.5 Q208.0,778.3 358.6,780.8 M359.2,778.9 Q358.1,813.5 361.2,844.5 M359.3,843.2 Q209.1,843.8 58.9,843.8 M59.2,845.5 Q62.1,812.2 59.2,781.5" fill="none" stroke="#1e1e1e" stroke-width="2" stroke-linecap="round"></path><path d="M59.4,779.5 Q207.8,779.5 359.9,780.0 M359.0,780.0 Q357.8,810.9 358.7,843.7 M358.5,842.5 Q209.1,842.8 60.3,844.1 M60.8,844.5 Q61.0,813.7 59.6,779.4" fill="none" stroke="#1e1e1e" stroke-width="2" stroke-linecap="round"></path><text x="210.0" y="806.8" font-family="Excalifont, Virgil, 'Comic Sans MS', 'Segoe Print', cursive" font-size="15px" fill="#1e1e1e" text-anchor="middle" font-weight="normal" style="white-space:pre">Route to human review,</text><text x="210.0" y="827.8" font-family="Excalifont, Virgil, 'Comic Sans MS', 'Segoe Print', cursive" font-size="15px" fill="#1e1e1e" text-anchor="middle" font-weight="normal" style="white-space:pre">state the uncertainty</text><path d="M211.6,722.9 Q211.0,752.6 208.5,781.1" fill="none" stroke="#dc3545" stroke-width="2" stroke-linecap="round"></path><path d="M211.3,724.4 Q211.0,753.4 208.8,780.1" fill="none" stroke="#dc3545" stroke-width="2" stroke-linecap="round"></path><path d="M203.8,770.4 Q207.8,775.8 210.2,780.8" fill="none" stroke="#dc3545" stroke-width="2" stroke-linecap="round"></path><path d="M216.6,770.1 Q212.3,773.5 209.3,779.7" fill="none" stroke="#dc3545" stroke-width="2" stroke-linecap="round"></path><path d="M30,890 L390,890 L390,954 L30,954 Z" fill="#f8fff8" stroke="none"></path><path d="M28.7,891.1 Q210.3,890.6 390.4,890.6 M390.0,888.4 Q391.3,923.1 390.0,954.1 M390.5,952.6 Q211.1,952.9 28.6,953.2 M30.7,953.1 Q31.1,924.1 30.0,889.6" fill="none" stroke="#28a745" stroke-width="2" stroke-linecap="round"></path><path d="M29.9,890.6 Q211.2,890.5 390.5,888.6 M388.9,889.2 Q391.1,921.1 390.2,952.4 M388.6,953.3 Q210.8,954.9 30.6,953.3 M30.1,953.9 Q29.8,920.3 31.3,889.0" fill="none" stroke="#28a745" stroke-width="2" stroke-linecap="round"></path><text x="210.0" y="927.2" font-family="Excalifont, Virgil, 'Comic Sans MS', 'Segoe Print', cursive" font-size="15px" fill="#28a745" text-anchor="middle" font-weight="normal" style="white-space:pre">Don't manufacture certainty</text><path d="M211.5,845.4 Q207.8,866.8 211.0,891.5" fill="none" stroke="#28a745" stroke-width="1.4" stroke-linecap="round" stroke-dasharray="6 8"></path><path d="M209.8,843.3 Q208.7,869.0 209.1,890.3" fill="none" stroke="#28a745" stroke-width="1.4" stroke-linecap="round" stroke-dasharray="6 8"></path><path d="M890,660 L1220,660 L1220,724 L890,724 Z" fill="#fdf2f4" stroke="none"></path><path d="M888.9,660.1 Q1057.0,658.4 1221.0,660.0 M1221.2,660.7 Q1218.8,693.8 1220.0,722.5 M1218.4,724.0 Q1054.8,723.1 888.9,723.5 M889.4,725.1 Q887.8,693.1 891.1,658.8" fill="none" stroke="#dc3545" stroke-width="2" stroke-linecap="round"></path><path d="M891.4,660.7 Q1056.8,659.1 1219.6,659.7 M1221.6,660.3 Q1219.4,691.7 1219.3,722.6 M1218.7,725.1 Q1054.0,726.0 889.2,723.3 M890.0,723.0 Q889.4,694.0 891.2,661.0" fill="none" stroke="#dc3545" stroke-width="2" stroke-linecap="round"></path><text x="1055.0" y="697.6" font-family="Excalifont, Virgil, 'Comic Sans MS', 'Segoe Print', cursive" font-size="16px" fill="#dc3545" text-anchor="middle" font-weight="normal" style="white-space:pre">Red flag detected</text><path d="M710.4,531.3 Q862.0,595.2 1010.7,658.6" fill="none" stroke="#dc3545" stroke-width="2" stroke-linecap="round"></path><path d="M710.7,529.8 Q861.1,595.6 1009.3,658.6" fill="none" stroke="#dc3545" stroke-width="2" stroke-linecap="round"></path><path d="M999.0,660.8 Q1004.0,660.4 1009.6,660.5" fill="none" stroke="#dc3545" stroke-width="2" stroke-linecap="round"></path><path d="M1004.0,649.8 Q1006.9,654.6 1010.1,659.8" fill="none" stroke="#dc3545" stroke-width="2" stroke-linecap="round"></path><text x="890" y="589.9" font-family="Excalifont, Virgil, 'Comic Sans MS', 'Segoe Print', cursive" font-size="14px" fill="#868e96" text-anchor="middle" font-weight="normal" style="white-space:pre">red flag</text><path d="M890,780 L1220,780 L1220,844 L890,844 Z" fill="#fff" stroke="none"></path><path d="M888.9,778.9 Q1053.7,781.8 1220.0,779.1 M1221.3,781.6 Q1219.8,810.4 1219.0,842.7 M1219.5,842.7 Q1053.8,842.9 890.2,845.2 M890.8,843.7 Q889.6,812.1 889.6,779.5" fill="none" stroke="#1e1e1e" stroke-width="2" stroke-linecap="round"></path><path d="M888.6,779.3 Q1057.1,778.3 1220.0,780.4 M1221.2,779.1 Q1219.0,810.9 1219.7,843.8 M1221.5,845.1 Q1056.7,841.9 888.5,844.7 M891.3,843.9 Q890.4,809.8 889.7,781.4" fill="none" stroke="#1e1e1e" stroke-width="2" stroke-linecap="round"></path><text x="1055.0" y="806.8" font-family="Excalifont, Virgil, 'Comic Sans MS', 'Segoe Print', cursive" font-size="15px" fill="#1e1e1e" text-anchor="middle" font-weight="normal" style="white-space:pre">Escalate + require human</text><text x="1055.0" y="827.8" font-family="Excalifont, Virgil, 'Comic Sans MS', 'Segoe Print', cursive" font-size="15px" fill="#1e1e1e" text-anchor="middle" font-weight="normal" style="white-space:pre">acknowledgement &lt; 2 min</text><path d="M1056.0,725.1 Q1057.1,750.9 1053.7,778.9" fill="none" stroke="#dc3545" stroke-width="2" stroke-linecap="round"></path><path d="M1055.1,724.6 Q1057.0,753.0 1055.5,780.8" fill="none" stroke="#dc3545" stroke-width="2" stroke-linecap="round"></path><path d="M1048.7,769.8 Q1050.6,775.6 1054.5,780.8" fill="none" stroke="#dc3545" stroke-width="2" stroke-linecap="round"></path><path d="M1061.5,769.3 Q1057.1,774.2 1055.3,780.4" fill="none" stroke="#dc3545" stroke-width="2" stroke-linecap="round"></path><path d="M860,890 L1250,890 L1250,954 L860,954 Z" fill="#f8fff8" stroke="none"></path><path d="M858.8,888.6 Q1055.1,890.4 1249.6,889.1 M1250.3,888.4 Q1249.1,921.8 1251.5,954.5 M1251.2,953.9 Q1053.8,952.9 861.5,954.7 M859.4,952.5 Q860.0,922.8 859.7,889.2" fill="none" stroke="#28a745" stroke-width="2" stroke-linecap="round"></path><path d="M860.5,891.4 Q1053.8,887.9 1249.5,889.7 M1250.6,889.0 Q1251.3,923.1 1250.0,953.1 M1251.5,953.4 Q1056.4,952.8 859.1,954.8 M859.3,955.4 Q860.0,920.6 859.1,889.7" fill="none" stroke="#28a745" stroke-width="2" stroke-linecap="round"></path><text x="1055.0" y="927.2" font-family="Excalifont, Virgil, 'Comic Sans MS', 'Segoe Print', cursive" font-size="15px" fill="#28a745" text-anchor="middle" font-weight="normal" style="white-space:pre">Escalation never waits for routing</text><path d="M1055.5,845.4 Q1053.4,866.5 1054.1,891.5" fill="none" stroke="#28a745" stroke-width="1.4" stroke-linecap="round" stroke-dasharray="6 8"></path><path d="M1053.9,842.6 Q1053.0,866.5 1056.3,891.2" fill="none" stroke="#28a745" stroke-width="1.4" stroke-linecap="round" stroke-dasharray="6 8"></path><path d="M405,660 L715,660 L715,724 L405,724 Z" fill="#fff" stroke="none"></path><path d="M405.7,661.6 Q561.9,659.2 714.0,661.4 M715.8,658.5 Q715.7,691.5 714.6,723.5 M713.9,722.4 Q559.0,723.3 406.5,722.8 M406.5,723.1 Q404.4,693.4 406.0,659.8" fill="none" stroke="#1e1e1e" stroke-width="2" stroke-linecap="round"></path><path d="M403.6,659.9 Q559.4,661.9 714.0,659.6 M716.3,658.5 Q714.6,693.4 715.9,722.5 M713.5,722.6 Q561.9,722.9 405.8,725.3 M404.5,723.3 Q407.1,692.5 404.2,660.7" fill="none" stroke="#1e1e1e" stroke-width="2" stroke-linecap="round"></path><text x="560.0" y="686.8" font-family="Excalifont, Virgil, 'Comic Sans MS', 'Segoe Print', cursive" font-size="15px" fill="#1e1e1e" text-anchor="middle" font-weight="normal" style="white-space:pre">Report extraction</text><text x="560.0" y="707.8" font-family="Excalifont, Virgil, 'Comic Sans MS', 'Segoe Print', cursive" font-size="15px" fill="#1e1e1e" text-anchor="middle" font-weight="normal" style="white-space:pre">+ routing signal</text><path d="M559.4,624.3 Q557.8,643.6 561.3,660.4" fill="none" stroke="#1e1e1e" stroke-width="2" stroke-linecap="round"></path><path d="M561.4,623.5 Q558.8,642.4 561.5,661.5" fill="none" stroke="#1e1e1e" stroke-width="2" stroke-linecap="round"></path><path d="M553.6,649.2 Q556.7,654.8 560.9,659.4" fill="none" stroke="#1e1e1e" stroke-width="2" stroke-linecap="round"></path><path d="M566.8,650.2 Q564.0,655.6 560.2,659.7" fill="none" stroke="#1e1e1e" stroke-width="2" stroke-linecap="round"></path><text x="630" y="644.9" font-family="Excalifont, Virgil, 'Comic Sans MS', 'Segoe Print', cursive" font-size="14px" fill="#868e96" text-anchor="middle" font-weight="normal" style="white-space:pre">clear</text><path d="M405,780 L715,780 L715,844 L405,844 Z" fill="#fff" stroke="none"></path><path d="M404.4,779.6 Q561.3,778.1 714.0,780.8 M714.2,778.6 Q712.9,812.2 714.4,845.5 M716.2,845.6 Q558.9,842.1 403.7,844.0 M405.7,843.8 Q403.8,811.6 405.4,780.6" fill="none" stroke="#1e1e1e" stroke-width="2" stroke-linecap="round"></path><path d="M405.8,781.1 Q560.7,778.3 716.1,779.3 M715.2,779.6 Q716.1,810.7 714.2,843.2 M713.9,845.2 Q560.4,843.2 404.7,845.6 M405.0,843.1 Q406.4,812.7 406.6,778.7" fill="none" stroke="#1e1e1e" stroke-width="2" stroke-linecap="round"></path><text x="560.0" y="806.8" font-family="Excalifont, Virgil, 'Comic Sans MS', 'Segoe Print', cursive" font-size="15px" fill="#1e1e1e" text-anchor="middle" font-weight="normal" style="white-space:pre">Nurse review — with reason,</text><text x="560.0" y="827.8" font-family="Excalifont, Virgil, 'Comic Sans MS', 'Segoe Print', cursive" font-size="15px" fill="#1e1e1e" text-anchor="middle" font-weight="normal" style="white-space:pre">with override</text><path d="M559.9,725.0 Q561.5,753.9 558.5,779.3" fill="none" stroke="#1e1e1e" stroke-width="2" stroke-linecap="round"></path><path d="M558.8,723.0 Q562.1,752.4 561.4,779.6" fill="none" stroke="#1e1e1e" stroke-width="2" stroke-linecap="round"></path><path d="M554.5,769.6 Q556.2,775.6 560.9,779.2" fill="none" stroke="#1e1e1e" stroke-width="2" stroke-linecap="round"></path><path d="M566.4,770.0 Q562.3,774.5 559.3,779.4" fill="none" stroke="#1e1e1e" stroke-width="2" stroke-linecap="round"></path><path d="M385,890 L735,890 L735,954 L385,954 Z" fill="#f8fff8" stroke="none"></path><path d="M384.2,890.3 Q560.7,888.7 733.4,889.4 M735.6,889.0 Q734.2,920.7 735.9,954.2 M733.6,952.7 Q559.5,954.2 385.4,952.7 M383.9,954.6 Q384.6,921.0 384.4,891.5" fill="none" stroke="#28a745" stroke-width="2" stroke-linecap="round"></path><path d="M384.4,890.2 Q559.4,889.6 736.2,891.6 M734.6,889.0 Q736.0,920.7 733.4,955.3 M734.8,955.0 Q559.6,955.7 384.9,952.9 M383.4,954.2 Q385.6,923.8 383.7,890.4" fill="none" stroke="#28a745" stroke-width="2" stroke-linecap="round"></path><text x="560.0" y="927.2" font-family="Excalifont, Virgil, 'Comic Sans MS', 'Segoe Print', cursive" font-size="15px" fill="#28a745" text-anchor="middle" font-weight="normal" style="white-space:pre">The human makes the decision</text><path d="M559.6,844.0 Q558.4,866.0 560.1,891.4" fill="none" stroke="#28a745" stroke-width="1.4" stroke-linecap="round" stroke-dasharray="6 8"></path><path d="M558.7,844.0 Q561.4,869.1 559.0,888.8" fill="none" stroke="#28a745" stroke-width="1.4" stroke-linecap="round" stroke-dasharray="6 8"></path></svg>